
        <svg xmlns="http://www.w3.org/2000/svg" xmlns:xlink="http://www.w3.org/1999/xlink" version="1.1" width="3187.5" height="969.8147905393674" viewBox="0 0 3187.5 969.8147905393674">
			
			<g transform="scale(9.375) translate(10, 10)">
				<defs id="SvgjsDefs2036"/><g id="SvgjsG2037" featureKey="symbolFeature-0" transform="matrix(2.149751606364132,0,0,2.149751606364132,-57.48651013317612,-65.76519500780415)" fill="#fff"><path xmlns="http://www.w3.org/2000/svg" d="M60.656,30.592c-3.94,0-8.182,2.542-10.655,5.038c-2.476-2.496-6.718-5.038-10.656-5.038  c-7.303,0-12.604,5.721-12.604,13.604c0,12.248,21.726,24.539,22.653,25.057c0.185,0.103,0.395,0.156,0.607,0.156  s0.422-0.054,0.608-0.157c0.926-0.518,22.649-12.82,22.649-25.056C73.26,36.313,67.959,30.592,60.656,30.592z M30.152,48.241  l8.406,1.267l4.511-1.343l-13.612-2.051c-0.14-0.642-0.217-1.283-0.217-1.919c0-6.434,4.249-11.104,10.104-11.104  c3.597,0,7.671,2.674,9.679,5.191c0.463,0.578,1.492,0.579,1.955-0.001c2.006-2.516,6.08-5.19,9.679-5.19  c4.521,0,8.074,2.791,9.464,7.021L31.965,51.471C31.229,50.407,30.614,49.326,30.152,48.241z M50.001,66.713  c-1.479-0.874-6.355-3.857-11.011-7.812l4.735-1.41l16.061,2.421C55.528,63.358,51.35,65.914,50.001,66.713z M61.818,58.196  l-13.583-2.048l11.557-3.44l6.518,0.982C64.965,55.27,63.419,56.787,61.818,58.196z M67.736,51.883l-3.433-0.518l4.677-1.392  C68.611,50.614,68.193,51.252,67.736,51.883z M37.224,57.339c-1.431-1.318-2.791-2.718-3.972-4.165l37.339-11.115  c0.107,0.687,0.17,1.398,0.17,2.136c0,1.108-0.236,2.23-0.642,3.352L37.224,57.339z M39.281,39.133l-1.471-0.448  c-0.298-0.091-0.617-0.409-0.708-0.708l-0.447-1.47c-0.091-0.298-0.239-0.298-0.33,0l-0.447,1.47  c-0.091,0.298-0.409,0.617-0.708,0.708L33.7,39.133c-0.298,0.091-0.298,0.239,0,0.33l1.471,0.447  c0.298,0.091,0.617,0.409,0.708,0.708l0.447,1.47c0.091,0.298,0.239,0.298,0.33,0l0.447-1.47c0.091-0.298,0.409-0.617,0.708-0.708  l1.471-0.447C39.58,39.373,39.58,39.224,39.281,39.133z"/></g><g id="SvgjsG2038" featureKey="nameFeature-0" transform="matrix(1.9536941165668482,0,0,1.9536941165668482,120.01977313982488,-6.7395424293719515)" fill="#fff"><path d="M0.32 33.480000000000004 c-0.74668 1.7067 -0.22672 3.2933 1.56 4.76 c0.61332 0.50668 1.2333 0.87336 1.86 1.1 s1.2067 0.39336 1.74 0.50004 c0.61332 0.10668 1.2 0.14668 1.76 0.12 c-0.32 -0.26668 -0.56 -0.58668 -0.72 -0.96 c-0.13332 -0.32 -0.22664 -0.72 -0.27996 -1.2 s0.06668 -1.04 0.36 -1.68 c0.34668 -0.88 0.34668 -1.7533 0 -2.62 s-0.96 -1.4867 -1.84 -1.86 c-0.42668 -0.18668 -0.86668 -0.27336 -1.32 -0.26004 s-0.88 0.1 -1.28 0.26 s-0.76 0.4 -1.08 0.72 s-0.57332 0.69332 -0.76 1.12 z M14.72 40.11992 c-0.05332 0.02668 -0.11332 0.04 -0.18 0.04 s-0.12668 0.01332 -0.18 0.04 l0 -9.2 l0 -21 l7.32 0 l0 20.44 c0 1.1733 -0.18668 2.2933 -0.56 3.36 s-0.88 2.0267 -1.52 2.88 s-1.38 1.58 -2.22 2.18 s-1.7267 1.02 -2.66 1.26 z M27.88 25.16 c-0.72 -1.68 -0.23996 -3.2267 1.44 -4.64 c0.58668 -0.48 1.18 -0.84668 1.78 -1.1 s1.1533 -0.43332 1.66 -0.54 c0.58668 -0.10668 1.1467 -0.16 1.68 -0.16 c-0.29332 0.26668 -0.52 0.58668 -0.68 0.96 c-0.13332 0.32 -0.21332 0.71332 -0.24 1.18 s0.10664 1.0067 0.39996 1.62 c0.18668 0.4 0.28668 0.82 0.3 1.26 s-0.06 0.86 -0.22 1.26 s-0.38668 0.76 -0.68 1.08 s-0.65332 0.57332 -1.08 0.76 c-0.4 0.18668 -0.82 0.28 -1.26 0.28 s-0.86 -0.07332 -1.26 -0.22 s-0.76 -0.36668 -1.08 -0.66 s-0.57332 -0.65332 -0.76 -1.08 z M33.08 39.92 l3.08 0 c-1.0933 -0.37332 -1.9866 -1.04 -2.68 -2 s-1.04 -2.0533 -1.04 -3.28 s0.34668 -2.32 1.04 -3.28 s1.5866 -1.6267 2.68 -2 l-3.52 0 c-1.36 0 -2.5 0.17332 -3.42 0.52 s-1.6467 0.78 -2.18 1.3 s-0.91332 1.0867 -1.14 1.7 s-0.34 1.2 -0.34 1.76 c0 0.58668 0.1 1.1867 0.3 1.8 s0.56668 1.18 1.1 1.7 s1.26 0.94668 2.18 1.28 s2.0867 0.5 3.5 0.5 l0.44 0 z M41.04 19.04 l-0.36 -0.08 l0 9.2 l0 11.84 l7.32 0 l0 -11.28 c0 -1.1733 -0.18668 -2.2933 -0.56 -3.36 s-0.88 -2.0267 -1.52 -2.88 s-1.38 -1.58 -2.22 -2.18 s-1.7267 -1.02 -2.66 -1.26 z M62.56 39.8 c-1.44 0 -2.7867 -0.25992 -4.04 -0.77992 s-2.3466 -1.2267 -3.28 -2.12 s-1.6666 -1.94 -2.2 -3.14 s-0.8 -2.48 -0.8 -3.84 s0.26668 -2.64 0.8 -3.84 s1.2666 -2.2467 2.2 -3.14 s2.0266 -1.6 3.28 -2.12 s2.6 -0.78 4.04 -0.78 l0.64 0 c-0.48 0.4 -0.92668 0.92668 -1.34 1.58 s-0.76 1.4066 -1.04 2.26 s-0.5 1.7933 -0.66 2.82 s-0.24 2.1 -0.24 3.22 s0.08 2.1933 0.24 3.22 s0.38 1.9667 0.66 2.82 s0.62668 1.6066 1.04 2.26 s0.86 1.18 1.34 1.58 l-0.64 0 z M66.04 13.920000000000002 c1.2267 -0.53332 2.3732 -1.0867 3.4399 -1.66 s1.9867 -1.1 2.76 -1.58 c0.90668 -0.53332 1.7334 -1.0666 2.48 -1.6 l0 30.92 l-7 0 l0 -21.16 c0 -1.0133 -0.08668 -1.84 -0.26 -2.48 s-0.36664 -1.1467 -0.57996 -1.52 c-0.26668 -0.42668 -0.54668 -0.73336 -0.84 -0.92004 z M96.72 37.56 c0.93332 0 1.7733 -0.09332 2.52 -0.28 c-1.0933 1.0133 -2.3666 1.82 -3.82 2.42 s-3.02 0.9 -4.7 0.9 c-1.6533 0 -3.2066 -0.28668 -4.66 -0.86 s-2.72 -1.36 -3.8 -2.36 s-1.9333 -2.1733 -2.56 -3.52 s-0.94 -2.78 -0.94 -4.3 c0 -1.4667 0.26668 -2.84 0.8 -4.12 s1.26 -2.4067 2.18 -3.38 s2.0067 -1.76 3.26 -2.36 s2.5866 -0.94 4 -1.02 c-0.98668 1.12 -1.7067 2.3733 -2.16 3.76 s-0.68 2.9467 -0.68 4.68 c0 1.5467 0.27332 2.96 0.82 4.24 s1.3 2.38 2.26 3.3 s2.08 1.6333 3.36 2.14 s2.6533 0.76 4.12 0.76 z M94.68 30.04 c0.08 -0.42668 0.14672 -0.85332 0.20004 -1.28 s0.08 -0.86668 0.08 -1.32 c0 -1.7867 -0.22668 -3.4067 -0.68 -4.86 s-1.1733 -2.7533 -2.16 -3.9 c1.4133 0.08 2.7466 0.43332 4 1.06 s2.34 1.4467 3.26 2.46 s1.6467 2.18 2.18 3.5 s0.8 2.74 0.8 4.26 l0 0.08 l-7.68 0 z"/></g>
			</g>
		</svg>
	